<svg xmlns="http://www.w3.org/2000/svg" viewBox="0 0 10 10"><defs><style>.cls-1{fill:#171760;}</style></defs><title>Objectif</title><g id="Calque_2" data-name="Calque 2"><g id="Calque_1-2" data-name="Calque 1"><path class="cls-1" d="M7.79,3.26l-.06.06a3.94,3.94,0,1,1-1.05-1l.06-.06V1.73A4.48,4.48,0,1,0,8.27,3.26Z"/><path class="cls-1" d="M4.45,3.17a2.26,2.26,0,0,1,1.07.26l.37-.37A2.85,2.85,0,1,0,6.94,4.11l-.37.37a2.26,2.26,0,0,1,.26,1.07A2.38,2.38,0,1,1,4.45,3.17Z"/><path class="cls-1" d="M10,1.27a.23.23,0,0,0-.25-.13l-1,.14.14-1A.23.23,0,0,0,8.73,0a.26.26,0,0,0-.29,0L7.3,1.22a.23.23,0,0,0-.08.18l0,1L5.11,4.54a1.24,1.24,0,0,0-.66-.19,1.2,1.2,0,1,0,1.2,1.2,1.24,1.24,0,0,0-.19-.66L7.59,2.76l1,0h0a.23.23,0,0,0,.17-.08L9.93,1.56A.26.26,0,0,0,10,1.27ZM5.16,5.55a.71.71,0,1,1-.71-.71.69.69,0,0,1,.29.07l-.51.51.35.35.51-.51A.69.69,0,0,1,5.16,5.55ZM8.51,2.28l-.77,0,0-.77L8.26,1l-.08.59a.27.27,0,0,0,.07.21.27.27,0,0,0,.21.07l.59-.09Z"/></g></g></svg>