<svg xmlns="http://www.w3.org/2000/svg" viewBox="0 0 12.11 10"><defs><style>.cls-1{fill:#171760;}</style></defs><title>Team</title><g id="Calque_2" data-name="Calque 2"><g id="Calque_1-2" data-name="Calque 1"><path class="cls-1" d="M.62,9.7A.31.31,0,0,1,0,9.7,2.94,2.94,0,0,1,1.84,7,1.78,1.78,0,0,1,3,3.82a1.86,1.86,0,0,1,.8.2A3.21,3.21,0,0,1,5,3.13a1.72,1.72,0,0,1-.67-1.37,1.77,1.77,0,0,1,3.53,0,1.82,1.82,0,0,1-.67,1.37A3.37,3.37,0,0,1,8.36,4a1.72,1.72,0,0,1,.8-.2A1.78,1.78,0,0,1,10.27,7,2.94,2.94,0,0,1,12.11,9.7a.33.33,0,0,1-.65,0,2.31,2.31,0,1,0-4.61,0,.31.31,0,0,1-.62,0A2.9,2.9,0,0,1,8.06,7a1.81,1.81,0,0,1-.67-1.39,1.63,1.63,0,0,1,.48-1.16,2.39,2.39,0,0,0-1.82-.87,2.34,2.34,0,0,0-1.81.87A1.77,1.77,0,0,1,4,7,2.94,2.94,0,0,1,5.88,9.7a.31.31,0,0,1-.62,0,2.32,2.32,0,1,0-4.64,0ZM6.05.62A1.15,1.15,0,0,0,4.91,1.76,1.14,1.14,0,0,0,6.05,2.88,1.12,1.12,0,0,0,7.17,1.76,1.14,1.14,0,0,0,6.05.62ZM9.16,4.47a1.13,1.13,0,0,0,0,2.25,1.13,1.13,0,1,0,0-2.25ZM3,4.47A1.13,1.13,0,1,0,3,6.72,1.13,1.13,0,0,0,3,4.47Z"/></g></g></svg>